<svg width="144" height="144" viewBox="0 0 144 144" fill="none" xmlns="http://www.w3.org/2000/svg">
<path d="M59.0476 70.854C56.2278 67.7209 47.296 67.7209 44.4762 70.854C41.9384 73.6738 41.9384 84.2247 44.4762 87.0445C47.296 90.1776 56.2278 90.1776 59.0476 87.0445C61.5855 84.2247 61.5855 73.6738 59.0476 70.854Z" fill="url(#paint0_radial_1_9)"/>
<path d="M98.9841 70.854C96.1643 67.7209 87.2325 67.7209 84.4127 70.854C81.8749 73.6738 81.8749 84.2247 84.4127 87.0445C87.2325 90.1776 96.1643 90.1776 98.9841 87.0445C101.522 84.2247 101.522 73.6738 98.9841 70.854Z" fill="url(#paint1_radial_1_9)"/>
<path d="M31.5238 39.5524C31.5238 39.5524 46.1012 29.85 70.9206 29.2984C95.2064 28.7588 111.937 39.5524 111.937 39.5524M26.6667 99.9969C26.6667 99.9969 34.7147 106.706 50.4127 110.467M117.873 99.9969C117.873 99.9969 109.778 106.885 93.5873 110.615M55.8095 29.8381C55.8095 29.8381 57.2177 22.6817 54.1905 20.6635C52.5714 19.5842 35.8413 23.3619 22.3492 34.1556C17.4921 39.5524 4.00001 62.2191 4 102.156C8.85773 108.968 12.9193 112.183 20.1905 116.187C27.4617 120.192 38.9472 123.743 41.2381 122.664C43.529 121.584 50.4127 110.467 50.4127 110.467M86.0318 29.8381C86.0318 29.8381 85.5277 22.585 88.7302 20.6635C91.4286 19.0445 114.851 26.6 121.651 34.1556C126.508 39.5524 140 60.6 140 102.156C134.983 109.051 130 112.529 123.27 116.187C116.54 119.846 103.777 124.234 101.683 122.664C97.3651 119.425 93.5873 110.615 93.5873 110.615M50.4127 110.467C56.6058 111.951 63.9897 112.976 72.5397 112.949C80.6415 112.924 87.6574 111.982 93.5873 110.615M44.4762 70.854C47.296 67.7209 56.2278 67.7209 59.0476 70.854C61.5855 73.6738 61.5855 84.2247 59.0476 87.0445C56.2278 90.1776 47.296 90.1776 44.4762 87.0445C41.9384 84.2247 41.9384 73.6738 44.4762 70.854ZM84.4127 70.854C87.2325 67.7209 96.1643 67.7209 98.9841 70.854C101.522 73.6738 101.522 84.2247 98.9841 87.0445C96.1643 90.1776 87.2325 90.1776 84.4127 87.0445C81.8749 84.2247 81.8749 73.6738 84.4127 70.854Z" stroke="url(#paint2_linear_1_9)" stroke-width="4" stroke-linecap="round"/>
<defs>
<radialGradient id="paint0_radial_1_9" cx="0" cy="0" r="1" gradientUnits="userSpaceOnUse" gradientTransform="translate(72 71.7169) rotate(90.7272) scale(78.7894 104.49)">
<stop stop-color="#00C2FF"/>
<stop offset="1" stop-color="#CC00FF"/>
</radialGradient>
<radialGradient id="paint1_radial_1_9" cx="0" cy="0" r="1" gradientUnits="userSpaceOnUse" gradientTransform="translate(72 71.7169) rotate(90.7272) scale(78.7894 104.49)">
<stop stop-color="#00C2FF"/>
<stop offset="1" stop-color="#CC00FF"/>
</radialGradient>
<linearGradient id="paint2_linear_1_9" x1="72" y1="20.4425" x2="72" y2="122.991" gradientUnits="userSpaceOnUse">
<stop stop-color="#00D1FF"/>
<stop offset="1" stop-color="#CC00FF"/>
</linearGradient>
</defs>
</svg>
