<svg width="28" height="28" xmlns="http://www.w3.org/2000/svg">
    <g fill="none" fill-rule="nonzero">
        <path d="M14 0c7.732 0 14 6.268 14 14s-6.268 14-14 14S0 21.732 0 14 6.268 0 14 0zm0 2C7.373 2 2 7.373 2 14s5.373 12 12 12 12-5.373 12-12S20.627 2 14 2z" fill="#262AFF"/>
        <path d="M19.734 8v5.525h.034L22.301 8h1.734l-2.363 4.845 2.805 7.259h-1.836l-1.972-5.372-.935 1.751v3.621H18V8h1.734zm-6.167 0c.997 0 1.754.272 2.27.816.472.499.728 1.188.768 2.067l.005.245v5.661c0 1.133-.275 1.97-.824 2.508-.504.493-1.21.76-2.12.801l-.252.006H11V8h2.567zm-6.592-.315c.43 0 .825.08 1.181.238.357.159.666.368.927.629.521.544.782 1.167.782 1.87v.85H8.131v-.391c0-.397-.094-.74-.28-1.029-.188-.289-.502-.433-.944-.433-.238 0-.43.045-.578.136a1.14 1.14 0 00-.357.34c-.09.147-.153.315-.187.502a3.274 3.274 0 00-.051.586c0 .238.008.436.026.595.017.159.059.3.127.425a.945.945 0 00.298.323c.13.09.308.181.535.272l1.326.527c.385.147.697.32.935.518.238.199.425.428.561.689.125.272.21.58.255.926.045.346.068.74.068 1.182 0 .51-.051.983-.153 1.42a2.99 2.99 0 01-.493 1.113c-.238.317-.55.567-.935.748-.385.181-.856.272-1.411.272-.42 0-.81-.074-1.173-.221a2.79 2.79 0 01-.935-.612 2.978 2.978 0 01-.62-.91 2.762 2.762 0 01-.23-1.13v-.646h1.734v.544c0 .317.093.604.28.858.188.255.502.383.944.383.295 0 .524-.043.688-.128a.915.915 0 00.383-.365c.09-.159.144-.348.161-.57.018-.22.026-.467.026-.739 0-.317-.011-.578-.034-.782a1.346 1.346 0 00-.136-.493.956.956 0 00-.315-.306 4.03 4.03 0 00-.518-.255l-1.241-.51c-.748-.306-1.25-.711-1.504-1.216C4.128 12.392 4 11.76 4 11c0-.453.062-.884.187-1.292.125-.408.312-.76.561-1.054.238-.295.541-.53.91-.705.368-.176.807-.264 1.317-.264zm6.558 1.947h-.799v8.84h.799c.487 0 .833-.122 1.037-.366.178-.213.279-.532.301-.958l.005-.189v-5.831c0-.476-.096-.844-.289-1.105-.193-.26-.544-.391-1.054-.391z" fill="#3EADFF"/>
    </g>
</svg>