<svg xmlns="http://www.w3.org/2000/svg" width="144" height="144" viewBox="0 0 144 144"><g fill="none" fill-rule="evenodd"><circle cx="72" cy="72" r="64" fill="#232BFF" stroke="#3CADFF" stroke-width="16"/>
<path d="M35.4316406,89.3359375 C37.8144531,89.3359375 40.0703125,88.9111328 42.1992188,88.0615234 C44.328125,87.2119141 46.1933594,85.9863281 47.7949219,84.3847656 C49.4160156,82.8027344 50.65625,80.9570312 51.515625,78.8476562 C52.375,76.7382812 52.8046875,74.5117188 52.8046875,72.1679688 C52.8046875,69.8242188 52.375,67.5976562 51.515625,65.4882812 C50.65625,63.3789062 49.4160156,61.5234375 47.7949219,59.921875 C46.1933594,58.3398438 44.328125,57.1240234 42.1992188,56.2744141 C40.0703125,55.4248047 37.8144531,55 35.4316406,55 C33.0488281,55 30.7880859,55.4248047 28.6494141,56.2744141 C26.5107422,57.1240234 24.640625,58.3398438 23.0390625,59.921875 C21.4179688,61.5234375 20.1728516,63.3789062 19.3037109,65.4882812 C18.4345703,67.5976562 18,69.8242188 18,72.1679688 C18,74.5117188 18.4345703,76.7382812 19.3037109,78.8476562 C20.1728516,80.9570312 21.4179688,82.8027344 23.0390625,84.3847656 C24.640625,85.9863281 26.5107422,87.2119141 28.6494141,88.0615234 C30.7880859,88.9111328 33.0488281,89.3359375 35.4316406,89.3359375 Z M35.4316406,81.7773438 C32.7363281,81.7773438 30.5,80.8740234 28.7226562,79.0673828 C26.9453125,77.2607422 26.0566406,74.9609375 26.0566406,72.1679688 C26.0566406,69.375 26.9453125,67.0751953 28.7226562,65.2685547 C30.5,63.4619141 32.7363281,62.5585938 35.4316406,62.5585938 C38.1074219,62.5585938 40.3339844,63.4619141 42.1113281,65.2685547 C43.8886719,67.0751953 44.7773438,69.375 44.7773438,72.1679688 C44.7773438,74.9609375 43.8886719,77.2607422 42.1113281,79.0673828 C40.3339844,80.8740234 38.1074219,81.7773438 35.4316406,81.7773438 Z M65.6660156,88.6035156 L65.6660156,69.8242188 C65.6660156,67.8125 66.3837891,66.0986328 67.8193359,64.6826172 C69.2548828,63.2666016 71.0175781,62.5585938 73.1074219,62.5585938 C75.2363281,62.5585938 76.9453125,63.2275391 78.234375,64.5654297 C79.5234375,65.9033203 80.1679688,67.65625 80.1679688,69.8242188 L80.1679688,69.8242188 L80.1679688,88.6035156 L88.2246094,88.6035156 L88.2246094,69.3261719 C88.2246094,65.1074219 86.9404297,61.6650391 84.3720703,58.9990234 C81.8037109,56.3330078 78.46875,55 74.3671875,55 C70.9101562,55 68.0097656,56.3183594 65.6660156,58.9550781 L65.6660156,58.9550781 L65.6660156,55.7324219 L57.609375,55.7324219 L57.609375,88.6035156 L65.6660156,88.6035156 Z M109.816406,89.3359375 C113.488281,89.3359375 116.779297,88.3691406 119.689453,86.4355469 C122.599609,84.5019531 124.728516,81.8652344 126.076172,78.5253906 L126.076172,78.5253906 L116.964844,78.5253906 C116.125,79.5410156 115.080078,80.3369141 113.830078,80.9130859 C112.580078,81.4892578 111.242188,81.7773438 109.816406,81.7773438 C107.726562,81.7773438 105.856445,81.1767578 104.206055,79.9755859 C102.555664,78.7744141 101.466797,77.2265625 100.939453,75.3320312 L100.939453,75.3320312 L126.984375,75.3320312 C127.140625,74.53125 127.21875,73.4765625 127.21875,72.1679688 C127.21875,69.8242188 126.78418,67.5976562 125.915039,65.4882812 C125.045898,63.3789062 123.800781,61.5234375 122.179688,59.921875 C120.578125,58.3398438 118.708008,57.1240234 116.569336,56.2744141 C114.430664,55.4248047 112.179688,55 109.816406,55 C107.453125,55 105.202148,55.4248047 103.063477,56.2744141 C100.924805,57.1240234 99.0546875,58.3398438 97.453125,59.921875 C95.8320312,61.5234375 94.5869141,63.3789062 93.7177734,65.4882812 C92.8486328,67.5976562 92.4140625,69.8242188 92.4140625,72.1679688 C92.4140625,74.5117188 92.8486328,76.7382812 93.7177734,78.8476562 C94.5869141,80.9570312 95.8320312,82.8027344 97.453125,84.3847656 C99.0546875,85.9863281 100.924805,87.2119141 103.063477,88.0615234 C105.202148,88.9111328 107.453125,89.3359375 109.816406,89.3359375 Z M118.517578,68.3886719 L101.115234,68.3886719 C101.759766,66.6113281 102.873047,65.1953125 104.455078,64.140625 C106.037109,63.0859375 107.824219,62.5585938 109.816406,62.5585938 C111.828125,62.5585938 113.620117,63.0859375 115.192383,64.140625 C116.764648,65.1953125 117.873047,66.6113281 118.517578,68.3886719 L118.517578,68.3886719 Z" id="one" fill="#FFFFFF"></path>
</g></svg>